<svg width="24" height="24" viewBox="0 0 24 24" fill="none"
  xmlns="http://www.w3.org/2000/svg">
  <path fill-rule="evenodd" clip-rule="evenodd" d="M12.4627 3.00664C12.0252 2.93244 11.4279 2.92674 10.3512 2.92674C8.5278 2.92674 7.23137 2.92864 6.24978 3.0599C5.2872 3.18831 4.73458 3.43085 4.33224 3.83224C3.9299 4.23458 3.68831 4.78625 3.5599 5.74312C3.42864 6.72091 3.42674 8.00878 3.42674 9.82359V13.6282C3.42674 15.4411 3.42864 16.729 3.5599 17.7068C3.68831 18.6637 3.9299 19.2153 4.33224 19.6186C4.73458 20.02 5.28625 20.2616 6.24312 20.39C7.22091 20.5222 8.50878 20.5232 10.3226 20.5232H14.1273C15.9411 20.5232 17.23 20.5213 18.2077 20.39C19.1637 20.2616 19.7153 20.02 20.1177 19.6177C20.52 19.2153 20.7616 18.6637 20.89 17.7068C21.0213 16.73 21.0232 15.4411 21.0232 13.6273V13.2116C21.0232 11.7506 21.0137 11.0582 20.8577 10.536H17.8805C16.8029 10.536 15.9231 10.536 15.2268 10.4428C14.5011 10.3448 13.8714 10.1337 13.3682 9.6305C12.8651 9.12734 12.6539 8.49863 12.556 7.77099C12.4627 7.07664 12.4627 6.19587 12.4627 5.11726V3.00664ZM13.8895 3.74473V5.06684C13.8895 6.20824 13.8914 6.99199 13.9703 7.58076C14.0464 8.14955 14.1834 8.42824 14.3774 8.62132C14.5705 8.81536 14.8492 8.95233 15.418 9.02842C16.0068 9.10737 16.7905 9.10927 17.9319 9.10927H19.8533C19.4883 8.76171 19.1172 8.42051 18.7404 8.08582L14.9748 4.69684C14.6195 4.37213 14.2577 4.05469 13.8895 3.74473ZM10.4891 1.5C11.8064 1.5 12.6577 1.5 13.4405 1.79961C14.2233 2.10018 14.853 2.66707 15.8279 3.54499L15.9297 3.6363L19.6944 7.02528L19.8133 7.13181C20.9395 8.14479 21.6681 8.80014 22.059 9.67901C22.4509 10.5579 22.4509 11.5376 22.4499 13.0518V13.6805C22.4499 15.4288 22.4499 16.8137 22.3044 17.897C22.1541 19.0118 21.8383 19.9144 21.1269 20.6268C20.4144 21.3383 19.5118 21.6541 18.397 21.8044C17.3127 21.9499 15.9288 21.9499 14.1805 21.9499H10.2694C8.52114 21.9499 7.13626 21.9499 6.05289 21.8044C4.93813 21.6541 4.03548 21.3383 3.32306 20.6268C2.6116 19.9144 2.29581 19.0118 2.14553 17.897C2 16.8127 2 15.4288 2 13.6805V9.76937C2 8.02114 2 6.63626 2.14553 5.55289C2.29581 4.43813 2.6116 3.53548 3.32306 2.82306C4.03643 2.11064 4.94098 1.79581 6.0605 1.64553C7.14862 1.5 8.54017 1.5 10.2979 1.5H10.4891Z" fill="black"/>
  <path fill-rule="evenodd" clip-rule="evenodd" d="M9.21735 14.0408C9.3741 14.0993 9.50117 14.2178 9.5706 14.3701C9.64002 14.5223 9.64612 14.6959 9.58756 14.8527L8.32547 18.2183C8.29641 18.2959 8.25235 18.367 8.1958 18.4276C8.13925 18.4882 8.07131 18.5371 7.99587 18.5714C7.92044 18.6057 7.83898 18.6249 7.75615 18.6278C7.67332 18.6306 7.59073 18.6171 7.51311 18.5881C7.43549 18.559 7.36435 18.5149 7.30375 18.4584C7.24316 18.4019 7.1943 18.3339 7.15997 18.2585C7.09062 18.1061 7.08463 17.9324 7.14331 17.7757L8.4054 14.4101C8.46399 14.2534 8.58245 14.1263 8.73471 14.0569C8.88697 13.9874 9.06058 13.9814 9.21735 14.0399V14.0408ZM6.91782 14.1855C7.03599 14.3038 7.10237 14.4641 7.10237 14.6314C7.10237 14.7986 7.03599 14.9591 6.91782 15.0774L6.52237 15.4728L6.91782 15.8683C7.02929 15.9879 7.08997 16.1461 7.08709 16.3096C7.08421 16.4731 7.01798 16.629 6.90236 16.7447C6.78674 16.8603 6.63075 16.9265 6.46727 16.9294C6.30379 16.9323 6.14556 16.8716 6.02594 16.7601L5.18455 15.9187C5.06638 15.8004 5 15.64 5 15.4728C5 15.3055 5.06638 15.1452 5.18455 15.0269L6.02594 14.1855C6.14427 14.0673 6.30466 14.001 6.47188 14.001C6.63911 14.001 6.7995 14.0673 6.91782 14.1855ZM9.81221 15.8683C9.93051 15.75 10.091 15.6837 10.2582 15.6837C10.4254 15.6837 10.5858 15.75 10.7041 15.8683L11.5455 16.7097C11.6637 16.828 11.73 16.9883 11.73 17.1556C11.73 17.3228 11.6637 17.4832 11.5455 17.6015L10.7041 18.4429C10.6463 18.5049 10.5766 18.5547 10.4992 18.5892C10.4218 18.6237 10.3383 18.6422 10.2535 18.6437C10.1688 18.6452 10.0847 18.6295 10.0061 18.5978C9.92748 18.5661 9.85613 18.5189 9.79619 18.4589C9.73627 18.399 9.68903 18.3277 9.6573 18.2491C9.62556 18.1705 9.60997 18.0863 9.61147 18.0016C9.61296 17.9169 9.63151 17.8333 9.666 17.7559C9.70048 17.6785 9.75021 17.6088 9.81221 17.551L10.2077 17.1556L9.81221 16.7601C9.69404 16.6418 9.62766 16.4814 9.62766 16.3142C9.62766 16.1469 9.69404 15.9866 9.81221 15.8683Z" fill="black"/>
</svg>
